<svg width="34" height="34" viewBox="0 0 34 34" fill="none" xmlns="http://www.w3.org/2000/svg">
<rect width="34" height="34" rx="4" fill="#BFBFBF"/>
<path d="M27.8287 24.8625C27.2392 23.4662 26.3837 22.1978 25.3099 21.1281C24.2394 20.0553 22.9713 19.2 21.5756 18.6094C21.5631 18.6031 21.5506 18.6 21.5381 18.5938C23.4849 17.1875 24.7506 14.8969 24.7506 12.3125C24.7506 8.03125 21.2818 4.5625 17.0006 4.5625C12.7193 4.5625 9.25057 8.03125 9.25057 12.3125C9.25057 14.8969 10.5162 17.1875 12.4631 18.5969C12.4506 18.6031 12.4381 18.6062 12.4256 18.6125C11.0256 19.2031 9.76932 20.05 8.69119 21.1313C7.61841 22.2018 6.76308 23.4699 6.17244 24.8656C5.5922 26.232 5.27926 27.697 5.25057 29.1812C5.24973 29.2146 5.25558 29.2478 5.26777 29.2788C5.27996 29.3099 5.29824 29.3382 5.32154 29.3621C5.34484 29.386 5.37268 29.4049 5.40343 29.4179C5.43418 29.4308 5.4672 29.4375 5.50057 29.4375H7.37557C7.51307 29.4375 7.62244 29.3281 7.62557 29.1938C7.68807 26.7813 8.65682 24.5219 10.3693 22.8094C12.1412 21.0375 14.4943 20.0625 17.0006 20.0625C19.5068 20.0625 21.8599 21.0375 23.6318 22.8094C25.3443 24.5219 26.3131 26.7813 26.3756 29.1938C26.3787 29.3313 26.4881 29.4375 26.6256 29.4375H28.5006C28.5339 29.4375 28.567 29.4308 28.5977 29.4179C28.6285 29.4049 28.6563 29.386 28.6796 29.3621C28.7029 29.3382 28.7212 29.3099 28.7334 29.2788C28.7455 29.2478 28.7514 29.2146 28.7506 29.1812C28.7193 27.6875 28.4099 26.2344 27.8287 24.8625V24.8625ZM17.0006 17.6875C15.5662 17.6875 14.2162 17.1281 13.2006 16.1125C12.1849 15.0969 11.6256 13.7469 11.6256 12.3125C11.6256 10.8781 12.1849 9.52812 13.2006 8.5125C14.2162 7.49687 15.5662 6.9375 17.0006 6.9375C18.4349 6.9375 19.7849 7.49687 20.8006 8.5125C21.8162 9.52812 22.3756 10.8781 22.3756 12.3125C22.3756 13.7469 21.8162 15.0969 20.8006 16.1125C19.7849 17.1281 18.4349 17.6875 17.0006 17.6875Z" fill="white"/>
</svg>
